<svg width="53" height="60" viewBox="0 0 53 60" fill="none" xmlns="http://www.w3.org/2000/svg">
<path d="M17.207 0.428905C16.7543 0.64336 16.2301 1.11992 16.0156 1.50117C15.682 2.09687 15.7059 2.26367 16.3492 4.00312C19.709 13.1293 20.4 16.632 20.4238 24.7812C20.4238 29.9281 20.3762 30.5238 19.8996 32.0488C19.1609 34.384 17.8504 36.4809 15.8727 38.4824C13.6805 40.6746 10.9402 42.5094 5.81719 45.1305C3.33906 46.4172 1.45664 47.5371 1.12305 47.9422C0.408203 48.7762 0.336719 50.1582 0.908594 51.3734C2.38594 54.4949 9.5582 58.093 17.0879 59.475C20.5668 60.1184 32.4332 60.1184 35.9121 59.475C41.7262 58.4027 47.4926 55.9961 50.2566 53.518C51.877 52.0406 52.4727 50.9922 52.4727 49.6102C52.4727 48.0852 51.734 47.4418 47.2781 45.1781C42.2027 42.6047 39.391 40.7461 37.1988 38.5301C35.2211 36.5523 33.8629 34.4555 33.1242 32.168C32.7191 30.9051 32.6 29.8566 32.5047 26.3777C32.3855 21.5406 32.6953 18.0617 33.5531 14.0586C34.4586 9.96016 34.5062 9.3168 33.9344 8.17305C32.1473 4.69414 23.5691 0 19.018 0C18.4699 0 17.6598 0.190624 17.207 0.428905ZM21.1863 2.38281C23.593 2.95469 25.5945 3.83633 28.0965 5.45664C30.098 6.71953 32.457 9.00703 32.457 9.62656C32.457 11.3422 24.5223 8.74492 20.9004 5.83789C18.327 3.8125 17.3262 2.33516 18.3508 2.07305C19.0656 1.88242 19.1848 1.90625 21.1863 2.38281ZM24.4508 10.2699C26.6906 11.3184 29.55 12.1523 30.8844 12.1523H31.8137L31.6469 13.034C31.5754 13.5344 31.3371 14.7973 31.1703 15.8457C30.2172 21.1594 30.1219 28.3078 30.932 31.6914C32.0758 36.3617 35.4355 40.5793 40.5348 43.7246C41.3449 44.225 41.9406 44.6777 41.893 44.7254C41.8453 44.773 40.4633 44.6777 38.843 44.5109C34.7922 44.082 18.1125 44.082 14.157 44.5348C12.5367 44.7016 11.1785 44.7969 11.107 44.7254C11.0355 44.6777 11.5121 44.3203 12.1316 43.9629C17.1832 41.032 20.8527 36.457 22.1156 31.5723C22.6875 29.2609 22.7113 21.5645 22.1156 17.5375C21.7582 15.0594 20.4238 9.22149 19.9473 8.03008C19.8043 7.69648 20.1141 7.81562 21.1625 8.48281C21.925 8.95938 23.4023 9.76953 24.4508 10.2699ZM39.3672 46.584C45.777 47.275 50.0898 48.2758 50.0898 49.0621C50.0898 49.1813 49.6371 49.4434 49.0891 49.6578C45.0859 51.1352 35.9121 52.0168 25.118 51.9215C19.0656 51.8738 18.0887 51.9215 17.7551 52.2313C17.2785 52.7078 17.5406 53.5418 18.2316 53.7562C19.0895 54.0184 33.2434 53.923 36.9844 53.6371C41.4641 53.2559 45.2527 52.7316 47.3973 52.1836C48.3504 51.9453 49.0652 51.8738 48.9937 51.993C48.684 52.4934 45.5148 54.3758 43.6324 55.1621C41.4402 56.1152 37.3418 57.2352 34.4824 57.7117C31.909 58.1168 21.0672 58.1168 18.5176 57.7117C12.8703 56.8063 7.00859 54.5426 4.41133 52.3266L3.76797 51.7785L6.24609 52.3266C9.725 53.1129 10.5352 53.0414 10.5352 51.9215C10.5352 51.2781 10.0109 51.016 7.93789 50.6586C5.72187 50.2535 2.91016 49.3957 2.91016 49.0621C2.91016 47.9898 10.7258 46.6078 19.5898 46.1313C23.1164 45.9406 36.0789 46.2266 39.3672 46.584Z" fill="black"/>
</svg>
