<svg width="61" height="61" viewBox="0 0 61 61" fill="none" xmlns="http://www.w3.org/2000/svg">
<path d="M25.2338 5.57581C23.8994 6.05237 22.9463 6.8387 22.2314 8.05394L21.5642 9.17385L21.4928 22.3032L21.4213 35.4325L20.3728 36.2188C18.4904 37.6247 17.0369 39.8645 16.4412 42.2473C16.2744 42.8907 16.1791 44.2965 16.2506 45.5833C16.3221 47.4418 16.465 48.0137 17.1084 49.3719C19.2529 53.804 23.8994 56.3059 28.5935 55.5911C34.5506 54.6618 38.6967 48.9668 37.6959 43.1051C37.2908 40.6985 36.0279 38.4348 34.2408 36.7907C33.4545 36.0997 32.7158 35.5039 32.5967 35.5039C32.5013 35.5039 32.406 29.6422 32.406 22.4461C32.406 7.72034 32.4537 8.29222 30.5236 6.64808C28.9748 5.3137 27.0447 4.90862 25.2338 5.57581ZM28.3076 7.72034C28.665 7.91096 29.2131 8.33987 29.5467 8.69729L30.1424 9.34065L30.2138 22.9942L30.2615 36.6477L31.2861 37.2434C34.6459 39.2211 36.3377 43.2481 35.4084 46.9415C33.7404 53.4942 25.9248 55.734 20.9685 51.0876C20.3252 50.4918 19.4912 49.3719 19.1338 48.6333C18.5381 47.4418 18.4666 47.0368 18.4666 44.7969C18.4666 42.5094 18.5381 42.1758 19.1338 41.0321C20.0154 39.3641 21.2068 38.0774 22.5174 37.3864L23.5896 36.8145L23.6373 23.1848C23.7088 9.84105 23.7088 9.55511 24.2092 8.88792C25.1861 7.55354 26.9971 7.05315 28.3076 7.72034Z" fill="black"/>
<path d="M25.6627 14.2254C25.5674 14.2969 25.4959 19.6821 25.4959 26.1871V38.0059L24.376 38.4586C18.9193 40.7223 18.6096 48.3473 23.8517 50.9684C26.6158 52.3504 29.6658 51.85 31.8342 49.7055C33.2639 48.2758 33.8357 46.8223 33.8357 44.6777C33.8357 41.8899 31.8103 39.0781 29.2607 38.3156L28.3553 38.0535V26.0442V14.0586H27.0924C26.3775 14.0586 25.7342 14.1301 25.6627 14.2254ZM26.9256 39.5547C27.7834 40.4125 27.4021 41.5086 26.0916 41.9375C25.0432 42.2949 24.0662 43.4387 24.0662 44.3442C24.0662 45.1067 23.1607 46.2266 22.5174 46.2266C21.8978 46.2266 21.2068 45.3211 21.2068 44.4871C21.2545 42.5332 22.4935 40.627 24.3521 39.6977C25.8295 38.959 26.306 38.9352 26.9256 39.5547Z" fill="black"/>
<path d="M36.457 12.748V13.8203H40.627H44.7969V12.748V11.6758H40.627H36.457V12.748Z" fill="black"/>
<path d="M36.5046 17.4423L36.5761 18.4669L39.0304 18.5384L41.4608 18.6099V17.5138V16.4415H38.9351H36.4331L36.5046 17.4423Z" fill="black"/>
<path d="M36.6238 21.1355C36.5285 21.207 36.457 21.7074 36.457 22.2078V23.1133H40.627H44.7969V22.041V20.9688H40.7937C38.5777 20.9688 36.6953 21.0402 36.6238 21.1355Z" fill="black"/>
<path d="M36.6238 25.9012C36.5285 25.9727 36.457 26.473 36.457 26.9734V27.8789H38.959H41.4609V26.8066V25.7344H39.1258C37.8391 25.7344 36.6953 25.8059 36.6238 25.9012Z" fill="black"/>
<path d="M36.5046 31.5008L36.5761 32.5254L40.6983 32.5969L44.7968 32.6445V31.5723V30.5H40.603H36.4331L36.5046 31.5008Z" fill="black"/>
</svg>
